<svg id="Love" xmlns="http://www.w3.org/2000/svg" width="178" height="178" viewBox="0 0 178 178">
  <defs>
    <style>
      .cls-1 {
        fill: none;
        stroke: #fff;
        stroke-width: 6px;
      }

      .cls-2 {
        fill: #fff;
        fill-rule: evenodd;
      }
    </style>
  </defs>
  <circle class="cls-1" cx="89" cy="89" r="86"/>
  <path id="LINE_GRAPH" data-name="LINE GRAPH" class="cls-2" d="M215.708,2949.47l-0.03.02h0l-25.969,17.98,0-.01a2.966,2.966,0,0,1-3.369.03v0.01l-0.011-.01h0l-13.421-8.95-13.9,8.18V2979h55a3,3,0,0,1,0,6H156a3,3,0,0,1-3-3v-48a3,3,0,0,1,6,0v25.75l12.479-7.34,0.006,0.01A3,3,0,0,1,173,2952a3.043,3.043,0,0,1,1.663.5h0l0.011,0.01h0l13.289,8.86,24.324-16.84,0,0.01A2.958,2.958,0,0,1,214,2944a2.995,2.995,0,0,1,1.706,5.46Z" transform="translate(-96 -2869)"/>
</svg>
