<svg id="Love" xmlns="http://www.w3.org/2000/svg" width="178" height="178" viewBox="0 0 178 178">
  <defs>
    <style>
      .cls-1 {
        fill: none;
        stroke: #fff;
        stroke-width: 6px;
      }

      .cls-2 {
        fill: #fff;
        fill-rule: evenodd;
      }
    </style>
  </defs>
  <circle class="cls-1" cx="89" cy="89" r="86"/>
  <path id="CLOUD_UPLOAD" data-name="CLOUD / UPLOAD" class="cls-2" d="M1035,2975a3,3,0,0,1,0-6,8.991,8.991,0,0,0,5.96-15.73c-0.19-.17-0.39-0.33-0.59-0.48a0.138,0.138,0,0,1-.04-0.03c-0.2-.15-0.4-0.28-0.6-0.41a0.879,0.879,0,0,1-.1-0.06c-0.19-.11-0.39-0.22-0.59-0.32a0.886,0.886,0,0,0-.17-0.08,5.616,5.616,0,0,0-.56-0.25,1.841,1.841,0,0,0-.25-0.09,4.557,4.557,0,0,0-.52-0.18c-0.11-.03-0.23-0.06-0.35-0.09-0.15-.04-0.3-0.08-0.46-0.11s-0.33-.05-0.49-0.07l-0.36-.06c-0.29-.02-0.58-0.04-0.88-0.04-0.09,0-.18.01-0.28,0.01-0.09-.51-0.2-1.01-0.34-1.51-0.03-.12-0.08-0.23-0.11-0.35-0.12-.38-0.23-0.75-0.37-1.12-0.04-.11-0.09-0.21-0.13-0.32-0.15-.37-0.3-0.74-0.48-1.09-0.04-.09-0.09-0.17-0.13-0.26-0.19-.37-0.38-0.74-0.6-1.09a16.952,16.952,0,0,0-29.12,0c-0.22.35-.41,0.72-0.6,1.09-0.04.09-.09,0.17-0.13,0.26-0.18.35-.33,0.72-0.48,1.09-0.04.11-.09,0.21-0.13,0.32-0.14.37-.25,0.74-0.37,1.12-0.03.12-.08,0.23-0.11,0.35-0.14.5-.25,1-0.34,1.51-0.1,0-.19-0.01-0.28-0.01-0.3,0-.59.02-0.88,0.04l-0.358.06c-0.165.02-.331,0.04-0.493,0.07s-0.3.07-.457,0.11l-0.354.09a4.9,4.9,0,0,0-.519.18,2.449,2.449,0,0,0-.252.09,6.075,6.075,0,0,0-.561.25,1.211,1.211,0,0,0-.167.08c-0.2.1-.4,0.21-0.588,0.32l-0.1.06c-0.206.13-.407,0.26-0.6,0.41l-0.04.03q-0.309.225-.6,0.48A8.992,8.992,0,0,0,1001,2969a3,3,0,0,1,0,6,15,15,0,0,1-4.387-29.34,22.933,22.933,0,0,1,42.777,0A15,15,0,0,1,1035,2975Zm-28.23-7.01h0.01v-0.01l8.99-9.99,0.01,0.01a2.964,2.964,0,0,1,4.44,0l0.01-.01,8.99,9.99h0l0.01,0.01h0a3.043,3.043,0,0,1,.76,1.72v0.01a2.528,2.528,0,0,1,.01.28h0a3,3,0,0,1-3,3h-0.16a0.127,0.127,0,0,0-.06-0.01,0.34,0.34,0,0,1-.1-0.01h-0.03c-0.05-.01-0.09-0.01-0.14-0.02h0a3,3,0,0,1-1.74-.95h0l-3.77-4.19V2983a3,3,0,0,1-6,0v-15.18l-3.77,4.19h0a3,3,0,0,1-1.74.95h0c-0.05.01-.09,0.01-0.13,0.02h-0.04a0.34,0.34,0,0,1-.1.01,0.127,0.127,0,0,0-.06.01H1009a3,3,0,0,1-2.23-5.01h0Z" transform="translate(-929 -2869)"/>
</svg>
